<svg width="197" height="151" viewBox="0 0 197 151" fill="none" xmlns="http://www.w3.org/2000/svg">
<path d="M163.301 76.6893C166.858 76.6893 170.415 77.1551 173.802 78.0867V22.2353C173.802 19.4829 170.627 17.9586 168.509 19.6523L87.0401 84.2689L5.52838 19.6523C3.36885 17.9586 0.235413 19.4829 0.235413 22.2353V114.502C0.235413 118.525 3.49588 121.828 7.56088 121.828H123.159C122.99 120.303 122.863 118.737 122.863 117.17C122.905 94.8125 141.028 76.6893 163.301 76.6893Z" fill="#063616"/>
<path d="M4.34276 10.0826L87.0401 75.6307L169.737 10.0826C173.548 7.0762 171.516 0.894014 166.689 0.809326C166.646 0.809326 166.604 0.809326 166.562 0.809326H7.51854C7.4762 0.809326 7.43385 0.809326 7.39151 0.809326C2.56432 0.894014 0.574168 7.0762 4.34276 10.0826Z" fill="#063616"/>
<path d="M173.845 85.1581C170.542 84.0572 166.985 83.4644 163.301 83.4644C144.712 83.4644 129.638 98.5387 129.638 117.128C129.638 118.694 129.765 120.261 129.977 121.785C132.263 138.172 146.321 150.749 163.301 150.749C181.89 150.749 196.964 135.674 196.964 117.085C196.964 102.223 187.268 89.5619 173.845 85.1581ZM166.646 132.075C166.604 132.287 166.519 132.498 166.435 132.71C166.35 132.922 166.265 133.134 166.138 133.303C166.011 133.472 165.884 133.684 165.715 133.811C165.545 133.98 165.376 134.107 165.207 134.235C165.037 134.362 164.826 134.446 164.614 134.531C164.402 134.616 164.19 134.658 163.979 134.743C163.767 134.785 163.555 134.827 163.301 134.827C163.09 134.827 162.878 134.827 162.624 134.743C162.412 134.7 162.2 134.616 161.989 134.531C161.777 134.446 161.565 134.319 161.396 134.235C161.226 134.107 161.057 133.98 160.888 133.811C160.718 133.642 160.591 133.472 160.464 133.303C160.337 133.134 160.252 132.922 160.168 132.71C160.083 132.498 159.998 132.287 159.956 132.075C159.914 131.863 159.871 131.652 159.871 131.397C159.871 131.186 159.871 130.974 159.956 130.72C159.998 130.508 160.083 130.297 160.168 130.085C160.252 129.873 160.337 129.661 160.464 129.492C160.591 129.323 160.718 129.153 160.888 128.984C161.692 128.179 162.835 127.841 163.936 128.052C164.148 128.095 164.36 128.179 164.572 128.222C164.783 128.306 164.995 128.433 165.164 128.518C165.334 128.645 165.503 128.772 165.672 128.942C165.842 129.111 165.969 129.28 166.096 129.45C166.223 129.619 166.308 129.831 166.392 130.042C166.477 130.254 166.562 130.466 166.604 130.678C166.646 130.889 166.689 131.101 166.689 131.355C166.689 131.609 166.689 131.863 166.646 132.075ZM166.689 121.235C166.689 123.098 165.164 124.622 163.301 124.622C161.438 124.622 159.914 123.098 159.914 121.235V102.815C159.914 100.952 161.438 99.4279 163.301 99.4279C165.164 99.4279 166.689 100.952 166.689 102.815V121.235Z" fill="#F46262"/>
</svg>
